<svg xmlns="http://www.w3.org/2000/svg" width="600" height="400" viewBox="0 0 600 400"><rect width="100%" height="100%" fill="#f6ad55"/><path fill="#ffffff" d="M135.965 207.18h17.48l-6.68-18.28q-.5-1.21-1.03-2.88-.53-1.68-1.06-3.61-.5 1.93-1.03 3.63-.53 1.69-1.03 2.94zm13.95-34.2 21.58 54.95h-7.9q-1.33 0-2.17-.67-.83-.66-1.25-1.65l-4.1-11.21h-22.77l-4.1 11.21q-.3.88-1.18 1.6-.87.72-2.16.72h-7.98l21.62-54.95zm33.93 17.67.65 3.08q1.18-1.18 2.49-2.18 1.31-1.01 2.77-1.71 1.47-.71 3.14-1.11t3.65-.4q3.19 0 5.66 1.09 2.47 1.08 4.12 3.04 1.65 1.95 2.51 4.67.85 2.72.85 5.99v24.81h-9.38v-24.81q0-3.58-1.64-5.53-1.63-1.96-4.97-1.96-2.44 0-4.56 1.1-2.13 1.1-4.03 3v28.2h-9.39v-38.99h5.74q1.82 0 2.39 1.71m55.33 27.21v-6.57q-4.06.19-6.84.7-2.77.51-4.44 1.31-1.68.8-2.4 1.86-.72 1.07-.72 2.32 0 2.47 1.46 3.53 1.47 1.07 3.82 1.07 2.89 0 5-1.05 2.11-1.04 4.12-3.17m-19.83-20.48-1.68-3q6.73-6.16 16.19-6.16 3.42 0 6.12 1.12t4.56 3.12q1.86 1.99 2.83 4.77.97 2.77.97 6.08v24.62h-4.26q-1.33 0-2.05-.4t-1.14-1.61l-.83-2.82q-1.49 1.33-2.89 2.34-1.41 1.01-2.93 1.69-1.52.69-3.25 1.05t-3.82.36q-2.47 0-4.56-.67-2.09-.66-3.61-1.99t-2.35-3.31q-.84-1.97-.84-4.6 0-1.48.5-2.94.49-1.46 1.61-2.79t2.91-2.51q1.78-1.18 4.39-2.05 2.6-.88 6.06-1.43t7.9-.66v-2.28q0-3.92-1.67-5.8t-4.83-1.88q-2.28 0-3.78.53t-2.64 1.2l-2.07 1.2q-.93.53-2.07.53-.99 0-1.67-.52-.69-.51-1.1-1.19m37.81-25.92h9.38v32.34h1.75q.95 0 1.5-.25.55-.24 1.12-1l9.69-11.97q.61-.8 1.35-1.22t1.92-.42h8.59l-12.12 14.48q-1.3 1.71-2.82 2.62.8.57 1.43 1.33t1.2 1.64l12.99 18.92h-8.47q-1.1 0-1.9-.36t-1.33-1.31l-9.96-14.78q-.53-.88-1.1-1.14-.57-.27-1.71-.27h-2.13v17.86h-9.38zm40.31 37.43v-7.83h19.69v7.83zm49.25 8.97v-6.57q-4.06.19-6.84.7-2.77.51-4.44 1.31-1.68.8-2.4 1.86-.72 1.07-.72 2.32 0 2.47 1.46 3.53 1.47 1.07 3.82 1.07 2.89 0 5-1.05 2.11-1.04 4.12-3.17m-19.83-20.48-1.68-3q6.73-6.16 16.19-6.16 3.42 0 6.12 1.12t4.56 3.12q1.86 1.99 2.83 4.77.97 2.77.97 6.08v24.62h-4.26q-1.33 0-2.05-.4t-1.14-1.61l-.83-2.82q-1.49 1.33-2.89 2.34-1.41 1.01-2.93 1.69-1.52.69-3.25 1.05t-3.82.36q-2.47 0-4.56-.67-2.09-.66-3.61-1.99t-2.35-3.31q-.84-1.97-.84-4.6 0-1.48.5-2.94.49-1.46 1.61-2.79t2.91-2.51q1.78-1.18 4.39-2.05 2.6-.88 6.06-1.43t7.9-.66v-2.28q0-3.92-1.67-5.8t-4.83-1.88q-2.28 0-3.78.53t-2.64 1.2l-2.07 1.2q-.93.53-2.07.53-.99 0-1.67-.52-.69-.51-1.1-1.19m45.94-6.73.64 3.08q1.18-1.18 2.49-2.18 1.31-1.01 2.78-1.71 1.46-.71 3.13-1.11t3.65-.4q3.19 0 5.66 1.09 2.47 1.08 4.13 3.04 1.65 1.95 2.5 4.67.86 2.72.86 5.99v24.81h-9.39v-24.81q0-3.58-1.63-5.53-1.64-1.96-4.98-1.96-2.43 0-4.56 1.1t-4.03 3v28.2h-9.38v-38.99h5.73q1.83 0 2.4 1.71m55.33 27.21v-6.57q-4.07.19-6.84.7-2.78.51-4.45 1.31t-2.39 1.86q-.73 1.07-.73 2.32 0 2.47 1.47 3.53 1.46 1.07 3.82 1.07 2.88 0 4.99-1.05 2.11-1.04 4.13-3.17m-19.84-20.48-1.67-3q6.72-6.16 16.19-6.16 3.42 0 6.11 1.12 2.7 1.12 4.56 3.12 1.87 1.99 2.84 4.77.96 2.77.96 6.08v24.62h-4.25q-1.33 0-2.05-.4-.73-.4-1.14-1.61l-.84-2.82q-1.48 1.33-2.89 2.34-1.4 1.01-2.92 1.69-1.52.69-3.25 1.05t-3.82.36q-2.47 0-4.56-.67-2.09-.66-3.61-1.99t-2.36-3.31q-.83-1.97-.83-4.6 0-1.48.49-2.94t1.62-2.79q1.12-1.33 2.9-2.51 1.79-1.18 4.39-2.05 2.6-.88 6.06-1.43t7.91-.66v-2.28q0-3.92-1.68-5.8-1.67-1.88-4.82-1.88-2.28 0-3.78.53t-2.64 1.2l-2.07 1.2q-.94.53-2.08.53-.98 0-1.67-.52-.68-.51-1.1-1.19m37.81-25.92h9.39v32.34h1.74q.95 0 1.51-.25.55-.24 1.12-1l9.69-11.97q.6-.8 1.35-1.22.74-.42 1.91-.42h8.59l-12.12 14.48q-1.29 1.71-2.81 2.62.8.57 1.42 1.33.63.76 1.2 1.64l13 18.92h-8.48q-1.1 0-1.9-.36t-1.33-1.31l-9.95-14.78q-.54-.88-1.11-1.14-.57-.27-1.71-.27h-2.12v17.86h-9.39z"/></svg>