<svg xmlns="http://www.w3.org/2000/svg" width="300" height="300" viewBox="0 0 300 300"><rect width="100%" height="100%" fill="#e2e8f0"/><path fill="#333333" d="M103.845 127.51h-27.93v18.62h23.58v9.35h-23.58v25.62h-11.74v-62.9h39.67zm27.62 8.26q4.96 0 9.03 1.61t6.96 4.57 4.46 7.22q1.56 4.26 1.56 9.53 0 5.3-1.56 9.57-1.57 4.26-4.46 7.26t-6.96 4.61-9.03 1.61q-5 0-9.09-1.61t-6.98-4.61-4.48-7.26q-1.59-4.27-1.59-9.57 0-5.27 1.59-9.53t4.48-7.22 6.98-4.57 9.09-1.61m0 37.72q5.57 0 8.25-3.74 2.67-3.74 2.67-10.97 0-7.22-2.67-11-2.68-3.79-8.25-3.79-5.65 0-8.37 3.81t-2.72 10.98q0 7.18 2.72 10.94 2.72 3.77 8.37 3.77m45.11 8.31q-5.83 0-8.94-3.29-3.11-3.28-3.11-9.07v-24.92h-4.56q-.87 0-1.48-.57-.61-.56-.61-1.7v-4.26l7.18-1.17 2.26-12.18q.22-.87.82-1.35.61-.48 1.57-.48h5.57v14.05h11.92v7.66h-11.92v24.18q0 2.09 1.02 3.26 1.02 1.18 2.81 1.18 1 0 1.67-.24.68-.24 1.18-.5t.89-.5.78-.24q.48 0 .78.24.31.24.66.72l3.21 5.22q-2.34 1.95-5.39 2.96-3.04 1-6.31 1m37.24-46.03q4.96 0 9.03 1.61 4.06 1.61 6.96 4.57 2.89 2.96 4.45 7.22 1.57 4.26 1.57 9.53 0 5.3-1.57 9.57-1.56 4.26-4.45 7.26-2.9 3-6.96 4.61-4.07 1.61-9.03 1.61-5 0-9.09-1.61t-6.98-4.61q-2.9-3-4.48-7.26-1.59-4.27-1.59-9.57 0-5.27 1.59-9.53 1.58-4.26 4.48-7.22 2.89-2.96 6.98-4.57t9.09-1.61m0 37.72q5.57 0 8.24-3.74 2.68-3.74 2.68-10.97 0-7.22-2.68-11-2.67-3.79-8.24-3.79-5.66 0-8.37 3.81-2.72 3.81-2.72 10.98 0 7.18 2.72 10.94 2.71 3.77 8.37 3.77"/></svg>